<svg width="128" height="128" viewBox="0 0 128 128" fill="none" xmlns="http://www.w3.org/2000/svg">
<rect width="128" height="128" fill="#00FF00"/>
<path d="M63.9873 32C64.0546 32 64.1508 32.0176 64.2617 32.0762L64.5049 32.2041L64.7666 32.2861L88.0469 39.5713C89.6247 40.4357 91.0077 42.4527 91 45.125C90.97 52.066 89.7251 61.917 85.918 71.4307C82.1176 80.9275 75.8398 89.9158 65.8369 95.5059H65.8359C64.6582 96.1643 63.3418 96.1643 62.1641 95.5059H62.1631C52.1541 89.9157 45.8769 80.9271 42.0781 71.4307C38.5105 62.512 37.1956 53.2968 37.0205 46.46L37 45.125C36.9923 42.4532 38.3746 40.436 39.9521 39.5713L63.2217 32.2861L63.4834 32.2041L63.7256 32.0762C63.8463 32.0124 63.9308 32 63.9873 32Z" stroke="black" stroke-width="6"/>
<path d="M70.6392 53.1774L67.8267 55.6043L68.6836 59.2337C68.7308 59.4307 68.7187 59.6373 68.6486 59.8274C68.5785 60.0175 68.4536 60.1826 68.2898 60.3018C68.1259 60.4209 67.9304 60.4889 67.728 60.497C67.5255 60.5051 67.3252 60.4531 67.1523 60.3474L63.9961 58.4049L60.8379 60.3474C60.6651 60.4525 60.465 60.504 60.2629 60.4956C60.0608 60.4872 59.8657 60.4191 59.7022 60.3001C59.5387 60.181 59.414 60.0162 59.344 59.8264C59.274 59.6367 59.2616 59.4304 59.3086 59.2337L60.1686 55.6043L57.3561 53.1774C57.2031 53.0452 57.0925 52.8709 57.038 52.6763C56.9836 52.4816 56.9877 52.2752 57.0498 52.0828C57.112 51.8905 57.2294 51.7207 57.3874 51.5947C57.5455 51.4687 57.7372 51.392 57.9386 51.3743L61.6261 51.0768L63.0486 47.6343C63.1256 47.4467 63.2566 47.2862 63.425 47.1732C63.5935 47.0603 63.7917 47 63.9945 47C64.1973 47 64.3955 47.0603 64.5639 47.1732C64.7324 47.2862 64.8634 47.4467 64.9404 47.6343L66.3623 51.0768L70.0498 51.3743C70.2516 51.3914 70.4438 51.4676 70.6024 51.5934C70.7611 51.7193 70.8791 51.8891 70.9416 52.0817C71.0041 52.2743 71.0084 52.481 70.954 52.6761C70.8995 52.8711 70.7887 53.0457 70.6354 53.178L70.6392 53.1774Z" fill="black"/>
</svg>
